# xmcd
#
# Track frame offsets: 
#        187
#        11270
#        29550
#        47102
#        71347
#        87562
#        99100
#        112812
#        127530
#        141915
#
# Disc length: 2099 seconds
#
# Revision: 3
# Processed by: cddbd v1.5.2PL0 Copyright (c) Steve Scherf et al.
# Submitted via: ExactAudioCopy v0.99pb4
#
DISCID=7308310a
DTITLE=Reba McEntire - Merry Christmas To You
DYEAR=1987
DGENRE=Christmas
TTITLE0=Away In A Manger
TTITLE1=On This Day
TTITLE2=O Holy Night
TTITLE3=The Christmas Guest
TTITLE4=Silent Night
TTITLE5=Happy Birthday Jesus (I'll Open This One For You)
TTITLE6=White Christmas
TTITLE7=I'll Be Home For Christmas
TTITLE8=A Christmas Letter
TTITLE9=The Christmas Song (Chestnuts Roasting On An Open Fire)
EXTD=
EXTT0=
EXTT1=
EXTT2=
EXTT3=
EXTT4=
EXTT5=
EXTT6=
EXTT7=
EXTT8=
EXTT9=
PLAYORDER=
